<svg width="10" height="8" viewBox="0 0 10 8" fill="none" xmlns="http://www.w3.org/2000/svg">
<path d="M0.0169097 3.9096C1.08404 1.15751 4.18013 -0.208408 6.93222 0.858727C8.33271 1.40178 9.44004 2.5091 9.98309 3.9096C10.0056 3.96774 10.0056 4.03222 9.98309 4.09036C8.91596 6.84245 5.81987 8.20837 3.06778 7.14123C1.66729 6.59819 0.559959 5.49086 0.0169097 4.09036C-0.00563656 4.03222 -0.00563656 3.96774 0.0169097 3.9096ZM3.24855 6.67505C5.71284 7.6306 8.48143 6.43399 9.48083 4.00001C8.97664 2.77331 7.99066 1.80542 6.75145 1.32491C4.28716 0.369363 1.51857 1.56597 0.519173 3.99996C1.02336 5.22665 2.00934 6.19455 3.24855 6.67505ZM5 5.99998C3.89543 5.99998 3 5.10455 3 3.99998C3 2.89541 3.89543 1.99998 5 1.99998C6.10457 1.99998 7 2.89541 7 3.99998C7 5.10455 6.10457 5.99998 5 5.99998ZM5 5.49998C5.82843 5.49998 6.5 4.82841 6.5 3.99998C6.5 3.17155 5.82843 2.49998 5 2.49998C4.17157 2.49998 3.5 3.17155 3.5 3.99998C3.5 4.82841 4.17157 5.49998 5 5.49998Z" fill="url(#paint0_linear_13_81)"/>
<defs>
<linearGradient id="paint0_linear_13_81" x1="-1.21755e-08" y1="0.664664" x2="10.4084" y2="1.35612" gradientUnits="userSpaceOnUse">
<stop stop-color="#BFC3FC"/>
<stop offset="1" stop-color="#A2C3FC"/>
</linearGradient>
</defs>
</svg>
