<svg width="24" height="25" viewBox="0 0 24 25" fill="none" xmlns="http://www.w3.org/2000/svg">
<path d="M24 11.9935C24.0008 13.0375 23.8647 14.077 23.5952 15.0856C23.3768 15.9106 23.0676 16.7088 22.6732 17.4656C21.8612 19.0544 20.705 20.442 19.2888 21.5273C17.8726 22.6126 16.232 23.3683 14.4868 23.7392C12.7415 24.1101 10.9354 24.087 9.20021 23.6714C7.46501 23.2559 5.84439 22.4584 4.45647 21.3371C3.06855 20.2158 1.94829 18.799 1.17734 17.1899C0.406395 15.5808 0.00418761 13.8199 3.25253e-05 12.0357C-0.00412256 10.2514 0.389879 8.48869 1.15332 6.876C1.91677 5.26332 3.03041 3.84129 4.4131 2.71356C5.73335 1.63641 7.26586 0.849714 8.91066 0.40481C9.92044 0.134974 10.9613 -0.00111591 12.0065 2.88196e-05C13.5201 -0.00331441 15.0203 0.284247 16.4253 0.84707C16.743 0.967467 17.0534 1.10638 17.3548 1.26309C17.4873 1.32556 17.6197 1.39552 17.7521 1.47298C18.5012 1.87876 19.2038 2.36513 19.8472 2.92345C20.2879 3.30112 20.6989 3.71211 21.0766 4.15278C21.6349 4.79628 22.1212 5.49882 22.527 6.24789C22.9404 6.9858 23.2661 7.76943 23.4978 8.58288C23.8324 9.68878 24.0017 10.8381 24 11.9935Z" fill="#FFB74D"/>
<path d="M12.0065 21.4609C17.2352 21.4609 21.4739 17.2222 21.4739 11.9935C21.4739 6.76484 17.2352 2.52615 12.0065 2.52615C6.77784 2.52615 2.53915 6.76484 2.53915 11.9935C2.53915 17.2222 6.77784 21.4609 12.0065 21.4609Z" fill="#EF9014"/>
</svg>
